{
  "accessors": [
    {
      "bufferView": 2,
      "componentType": 5126,
      "count": 3003,
      "max": [
        0.47953084111213684,
        0.4521341621875763,
        0.13754411041736603
      ],
      "min": [
        -0.4381808936595917,
        -0.42080292105674744,
        -0.03080655261874199
      ],
      "type": "VEC3"
    },
    {
      "bufferView": 2,
      "byteOffset": 36036,
      "componentType": 5126,
      "count": 3003,
      "max": [
        0.9947192668914795,
        0.999437153339386,
        0.9998910427093506
      ],
      "min": [
        -0.9990258812904358,
        -0.9979026317596436,
        -0.9998899102210999
      ],
      "type": "VEC3"
    },
    {
      "bufferView": 3,
      "componentType": 5126,
      "count": 3003,
      "max": [
        0.9999679923057556,
        0.9999892711639404,
        0.9999828934669495,
        1.0
      ],
      "min": [
        -0.9981664419174194,
        -0.9958339929580688,
        -0.9997262358665466,
        -1.0
      ],
      "type": "VEC4"
    },
    {
      "bufferView": 1,
      "componentType": 5126,
      "count": 3003,
      "max": [
        0.9999578595161438,
        0.9998641610145569
      ],
      "min": [
        5.4462027037516236e-05,
        0.00022164674010127783
      ],
      "type": "VEC2"
    },
    {
      "bufferView": 1,
      "byteOffset": 24024,
      "componentType": 5126,
      "count": 3003,
      "max": [
        0.999988317489624,
        0.9982445240020752
      ],
      "min": [
        -2631.55712890625,
        0.0
      ],
      "type": "VEC2"
    },
    {
      "bufferView": 1,
      "byteOffset": 48048,
      "componentType": 5126,
      "count": 3003,
      "max": [
        0.9999578595161438,
        0.9998641610145569
      ],
      "min": [
        5.4462027037516236e-05,
        0.00022164674010127783
      ],
      "type": "VEC2"
    },
    {
      "bufferView": 0,
      "componentType": 5125,
      "count": 4977,
      "type": "SCALAR"
    }
  ],
  "asset": {
    "extras": {
      "author": "Meerschaum Digital (https://sketchfab.com/meerschaumdigital)",
      "license": "CC-BY-4.0 (http://creativecommons.org/licenses/by/4.0/)",
      "source": "https://sketchfab.com/3d-models/fire-pit-game-ready-2k-pbr-9490039432e94536b05ac5bd3406ed61",
      "title": "Fire Pit (Game Ready / 2K PBR)"
    },
    "generator": "Sketchfab-11.65.0",
    "version": "2.0"
  },
  "bufferViews": [
    {
      "buffer": 0,
      "byteLength": 19908,
      "name": "floatBufferViews",
      "target": 34963
    },
    {
      "buffer": 0,
      "byteLength": 72072,
      "byteOffset": 19908,
      "byteStride": 8,
      "name": "floatBufferViews",
      "target": 34962
    },
    {
      "buffer": 0,
      "byteLength": 72072,
      "byteOffset": 91980,
      "byteStride": 12,
      "name": "floatBufferViews",
      "target": 34962
    },
    {
      "buffer": 0,
      "byteLength": 48048,
      "byteOffset": 164052,
      "byteStride": 16,
      "name": "floatBufferViews",
      "target": 34962
    }
  ],
  "buffers": [
    {
      "byteLength": 212100,
      "uri": "scene.bin"
    }
  ],
  "images": [
    {
      "uri": "textures/Fire_Pit_PBR_baseColor.jpeg"
    },
    {
      "uri": "textures/Fire_Pit_PBR_metallicRoughness.png"
    },
    {
      "uri": "textures/Fire_Pit_PBR_normal.jpeg"
    }
  ],
  "materials": [
    {
      "doubleSided": true,
      "name": "Fire_Pit_PBR",
      "normalTexture": {
        "index": 2
      },
      "occlusionTexture": {
        "index": 1
      },
      "pbrMetallicRoughness": {
        "baseColorTexture": {
          "index": 0
        },
        "metallicFactor": 0.0,
        "metallicRoughnessTexture": {
          "index": 1
        }
      }
    }
  ],
  "meshes": [
    {
      "name": "Fire Pit_Fire Pit PBR_0",
      "primitives": [
        {
          "attributes": {
            "NORMAL": 1,
            "POSITION": 0,
            "TANGENT": 2,
            "TEXCOORD_0": 3,
            "TEXCOORD_1": 4,
            "TEXCOORD_2": 5
          },
          "indices": 6,
          "material": 0,
          "mode": 4
        }
      ]
    }
  ],
  "nodes": [
    {
      "children": [
        1
      ],
      "matrix": [
        1.0,
        0.0,
        0.0,
        0.0,
        0.0,
        2.220446049250313e-16,
        -1.0,
        0.0,
        0.0,
        1.0,
        2.220446049250313e-16,
        0.0,
        0.0,
        0.0,
        0.0,
        1.0
      ],
      "name": "Sketchfab_model"
    },
    {
      "children": [
        2
      ],
      "matrix": [
        0.009999999776482582,
        0.0,
        0.0,
        0.0,
        0.0,
        0.0,
        0.009999999776482582,
        0.0,
        0.0,
        -0.009999999776482582,
        0.0,
        0.0,
        0.0,
        0.0,
        0.0,
        1.0
      ],
      "name": "9d47fc541b72413d97cdcbfe56b09178.fbx"
    },
    {
      "children": [
        3
      ],
      "name": "RootNode"
    },
    {
      "children": [
        4
      ],
      "matrix": [
        100.0,
        0.0,
        0.0,
        0.0,
        0.0,
        -1.629206793918314e-05,
        -99.99999999999868,
        0.0,
        0.0,
        99.99999999999868,
        -1.629206793918314e-05,
        0.0,
        0.0,
        0.0,
        0.0,
        1.0
      ],
      "name": "Fire Pit"
    },
    {
      "mesh": 0,
      "name": "Fire Pit_Fire Pit PBR_0"
    }
  ],
  "samplers": [
    {
      "magFilter": 9729,
      "minFilter": 9987,
      "wrapS": 10497,
      "wrapT": 10497
    }
  ],
  "scene": 0,
  "scenes": [
    {
      "name": "Sketchfab_Scene",
      "nodes": [
        0
      ]
    }
  ],
  "textures": [
    {
      "sampler": 0,
      "source": 0
    },
    {
      "sampler": 0,
      "source": 1
    },
    {
      "sampler": 0,
      "source": 2
    }
  ]
}
